<svg width="657.9px" height="122px" xmlns="http://www.w3.org/2000/svg" viewBox="-78.94687499999998 14 657.89375 122" style="background: rgba(0, 0, 0, 0)" preserveAspectRatio="xMidYMid"><defs><linearGradient id="editing-gradient-gradient" x1="0" x2="1" y1="0.5" y2="0.5" gradientUnits="objectBoundingBox"><stop offset="0" stop-color="#759fd1"></stop><stop offset="1" stop-color="#ca5aca"></stop></linearGradient></defs><g><g transform="matrix(1.3,0,0,1.4,-52,159)"><path d="M 11.7 -42.6 L -2.2 -42.6 L 5.9 -84.8 L 20 -84.8 L 11.7 -42.6 Z M 67.5 -41.3 L 67.5 -41.3 L 67.5 -41.3 Q 59.7 -41.3 59.7 -47.3 L 59.7 -47.3 L 59.7 -47.3 Q 59.7 -49.9 60.8 -55 L 60.8 -55 L 60.8 -55 Q 62 -60.1 62.3 -62.2 L 62.3 -62.2 L 62.3 -62.2 Q 63.2 -66.8 63.2 -68.3 L 63.2 -68.3 L 63.2 -68.3 Q 63.2 -71.6 60.8 -71.6 L 60.8 -71.6 L 60.8 -71.6 Q 59.2 -71.6 57.7 -69.4 L 57.7 -69.4 L 57.7 -69.4 Q 56.1 -67.2 55.4 -62.7 L 55.4 -62.7 L 51.5 -42.6 L 39 -41.3 L 42.4 -58.7 L 42.4 -58.7 Q 43 -61.6 43.5 -64.9 L 43.5 -64.9 L 43.5 -64.9 Q 44 -68.1 44 -68.6 L 44 -68.6 L 44 -68.6 Q 44 -71.6 41.9 -71.6 L 41.9 -71.6 L 41.9 -71.6 Q 40.4 -71.6 38.8 -69.4 L 38.8 -69.4 L 38.8 -69.4 Q 37.2 -67.2 36.3 -62.7 L 36.3 -62.7 L 32.4 -42.6 L 19.8 -41.3 L 26.5 -75.2 L 36.9 -76.5 L 35.8 -70 L 35.8 -70 Q 37.5 -73.5 40.6 -75 L 40.6 -75 L 40.6 -75 Q 43.6 -76.5 48.4 -76.5 L 48.4 -76.5 L 48.4 -76.5 Q 51.2 -76.5 53 -75.2 L 53 -75.2 L 53 -75.2 Q 54.8 -73.8 55.4 -71.6 L 55.4 -71.6 L 55.4 -71.6 Q 56.4 -73.9 59.2 -75.2 L 59.2 -75.2 L 59.2 -75.2 Q 62 -76.5 65.4 -76.5 L 65.4 -76.5 L 65.4 -76.5 Q 68.9 -76.5 70.6 -75.8 L 70.6 -75.8 L 70.6 -75.8 Q 72.3 -75 73.3 -73.8 L 73.3 -73.8 L 73.3 -73.8 Q 75 -71.6 75 -67.5 L 75 -67.5 L 75 -67.5 Q 75 -63.4 73.3 -55.1 L 73.3 -55.1 L 73.3 -55.1 Q 72.4 -51 72.4 -49.5 L 72.4 -49.5 L 72.4 -49.5 Q 72.4 -48 73.2 -47.1 L 73.2 -47.1 L 73.2 -47.1 Q 74.1 -46.2 75.4 -46 L 75.4 -46 L 75.4 -46 Q 74.8 -43.9 72.5 -42.6 L 72.5 -42.6 L 72.5 -42.6 Q 70.3 -41.3 67.5 -41.3 Z M 83.1 -44.5 L 83.1 -44.5 L 83.1 -44.5 Q 81.6 -46.2 80.9 -48.8 L 80.9 -48.8 L 80.9 -48.8 Q 80.3 -51.4 80.3 -55.7 L 80.3 -55.7 L 80.3 -55.7 Q 80.3 -60 81.7 -63.9 L 81.7 -63.9 L 81.7 -63.9 Q 83.2 -67.8 85.9 -70.6 L 85.9 -70.6 L 85.9 -70.6 Q 91.4 -76.5 100.5 -76.5 L 100.5 -76.5 L 100.5 -76.5 Q 103.7 -76.5 106.1 -75.4 L 106.1 -75.4 L 117.1 -76.5 L 112.3 -51.5 L 112.3 -51.5 Q 112.1 -50.8 112.1 -49.4 L 112.1 -49.4 L 112.1 -49.4 Q 112.1 -48 113 -47.1 L 113 -47.1 L 113 -47.1 Q 113.9 -46.2 115.1 -46 L 115.1 -46 L 115.1 -46 Q 114.5 -43.9 112.2 -42.6 L 112.2 -42.6 L 112.2 -42.6 Q 109.8 -41.3 107.2 -41.3 L 107.2 -41.3 L 107.2 -41.3 Q 104.6 -41.3 102.8 -42.3 L 102.8 -42.3 L 102.8 -42.3 Q 101.1 -43.3 100.5 -45 L 100.5 -45 L 100.5 -45 Q 99.5 -43.4 97.3 -42.3 L 97.3 -42.3 L 97.3 -42.3 Q 95.2 -41.3 92.3 -41.3 L 92.3 -41.3 L 92.3 -41.3 Q 89.3 -41.3 87 -42.1 L 87 -42.1 L 87 -42.1 Q 84.6 -42.8 83.1 -44.5 Z M 96.6 -70.5 L 96.6 -70.5 L 96.6 -70.5 Q 95.9 -69.3 95.2 -67.4 L 95.2 -67.4 L 95.2 -67.4 Q 94.6 -65.4 93.5 -60.2 L 93.5 -60.2 L 93.5 -60.2 Q 92.5 -55 92.5 -51.3 L 92.5 -51.3 L 92.5 -51.3 Q 92.5 -47.6 93.1 -46.5 L 93.1 -46.5 L 93.1 -46.5 Q 93.6 -45.4 94.7 -45.4 L 94.7 -45.4 L 94.7 -45.4 Q 96.7 -45.4 98.2 -47.4 L 98.2 -47.4 L 98.2 -47.4 Q 99.7 -49.3 100.3 -52.8 L 100.3 -52.8 L 103.7 -71.5 L 103.7 -71.5 Q 102.3 -72.7 100.8 -72.7 L 100.8 -72.7 L 100.8 -72.7 Q 99.2 -72.7 98.3 -72.2 L 98.3 -72.2 L 98.3 -72.2 Q 97.3 -71.6 96.6 -70.5 Z M 124.8 -69.3 L 124.8 -69.3 L 124.8 -69.3 Q 127 -72.4 130.3 -74.5 L 130.3 -74.5 L 130.3 -74.5 Q 133.6 -76.5 137.6 -76.5 L 137.6 -76.5 L 137.6 -76.5 Q 141.6 -76.5 143.6 -75.2 L 143.6 -75.2 L 156.1 -76.5 L 151.7 -51.9 L 151.7 -51.9 Q 149.5 -39.4 144.8 -34.5 L 144.8 -34.5 L 144.8 -34.5 Q 140.2 -29.8 131.4 -29.8 L 131.4 -29.8 L 131.4 -29.8 Q 124.7 -29.8 120.8 -31.9 L 120.8 -31.9 L 120.8 -31.9 Q 117 -34 117 -37.5 L 117 -37.5 L 117 -37.5 Q 117 -40.2 119 -41.7 L 119 -41.7 L 119 -41.7 Q 121 -43.2 124 -43.2 L 124 -43.2 L 124 -43.2 Q 126.7 -43.2 128.8 -41.9 L 128.8 -41.9 L 128.8 -41.9 Q 130 -41.3 130.6 -40.4 L 130.6 -40.4 L 130.6 -40.4 Q 129.1 -39.1 129.1 -37 L 129.1 -37 L 129.1 -37 Q 129.1 -34.3 131.6 -34.3 L 131.6 -34.3 L 131.6 -34.3 Q 135.9 -34.3 138.4 -44.4 L 138.4 -44.4 L 138.4 -44.4 Q 139.1 -47.1 139.6 -49.9 L 139.6 -49.9 L 139.6 -49.9 Q 136.8 -46.4 130.2 -46.4 L 130.2 -46.4 L 130.2 -46.4 Q 125.7 -46.4 123.1 -48.5 L 123.1 -48.5 L 123.1 -48.5 Q 120.4 -50.7 120.4 -55.8 L 120.4 -55.8 L 120.4 -55.8 Q 120.4 -59 121.5 -62.6 L 121.5 -62.6 L 121.5 -62.6 Q 122.6 -66.3 124.8 -69.3 Z M 133.1 -55.6 L 133.1 -55.6 L 133.1 -55.6 Q 133.1 -51.3 135.4 -51.3 L 135.4 -51.3 L 135.4 -51.3 Q 136.9 -51.3 138.4 -53 L 138.4 -53 L 138.4 -53 Q 139.5 -54.3 140 -56.3 L 140 -56.3 L 143.2 -72.7 L 143.2 -72.7 Q 142.9 -72.8 142.6 -72.9 L 142.6 -72.9 L 142.6 -72.9 Q 142 -73.2 141.1 -73.2 L 141.1 -73.2 L 141.1 -73.2 Q 137.2 -73.2 134.9 -66.8 L 134.9 -66.8 L 134.9 -66.8 Q 133.1 -61.8 133.1 -55.6 Z M 184.5 -53.4 L 184.5 -53.4 L 184.5 -53.4 Q 186.1 -52.3 186.1 -49.9 L 186.1 -49.9 L 186.1 -49.9 Q 186.1 -47.5 184.9 -46 L 184.9 -46 L 184.9 -46 Q 183.7 -44.4 181.7 -43.4 L 181.7 -43.4 L 181.7 -43.4 Q 177.6 -41.3 173.2 -41.3 L 173.2 -41.3 L 173.2 -41.3 Q 168.8 -41.3 166.2 -42.3 L 166.2 -42.3 L 166.2 -42.3 Q 163.6 -43.2 161.9 -45 L 161.9 -45 L 161.9 -45 Q 158.5 -48.4 158.5 -54.6 L 158.5 -54.6 L 158.5 -54.6 Q 158.5 -64.3 163.7 -70.2 L 163.7 -70.2 L 163.7 -70.2 Q 169.3 -76.5 179.1 -76.5 L 179.1 -76.5 L 179.1 -76.5 Q 185.2 -76.5 188.2 -73.9 L 188.2 -73.9 L 188.2 -73.9 Q 190.5 -72 190.5 -68.9 L 190.5 -68.9 L 190.5 -68.9 Q 190.5 -57.6 171 -57.6 L 171 -57.6 L 171 -57.6 Q 170.8 -56 170.8 -54.6 L 170.8 -54.6 L 170.8 -54.6 Q 170.8 -51.6 172.1 -50.5 L 172.1 -50.5 L 172.1 -50.5 Q 173.4 -49.4 175.8 -49.4 L 175.8 -49.4 L 175.8 -49.4 Q 178.2 -49.4 180.8 -50.5 L 180.8 -50.5 L 180.8 -50.5 Q 183.4 -51.6 184.5 -53.4 Z M 171.5 -60.4 L 171.5 -60.4 L 171.5 -60.4 Q 176 -60.4 178.6 -63.2 L 178.6 -63.2 L 178.6 -63.2 Q 181.2 -65.9 181.2 -70.2 L 181.2 -70.2 L 181.2 -70.2 Q 181.2 -71.6 180.7 -72.4 L 180.7 -72.4 L 180.7 -72.4 Q 180.2 -73.2 179.1 -73.2 L 179.1 -73.2 L 179.1 -73.2 Q 178 -73.2 177.1 -72.8 L 177.1 -72.8 L 177.1 -72.8 Q 176.1 -72.4 175.2 -71 L 175.2 -71 L 175.2 -71 Q 172.8 -67.8 171.5 -60.4 Z M 211.8 -65 L 211.8 -65 L 211.8 -65 Q 212.7 -67.4 212.7 -69.5 L 212.7 -69.5 L 212.7 -69.5 Q 212.7 -73.2 209.6 -73.2 L 209.6 -73.2 L 209.6 -73.2 Q 208 -73.2 206.7 -71.8 L 206.7 -71.8 L 206.7 -71.8 Q 205.4 -70.4 205.4 -68.6 L 205.4 -68.6 L 205.4 -68.6 Q 205.4 -67.3 206.4 -66.3 L 206.4 -66.3 L 206.4 -66.3 Q 207.9 -64.9 211.6 -62.6 L 211.6 -62.6 L 211.6 -62.6 Q 215.4 -60.2 216.9 -58.4 L 216.9 -58.4 L 216.9 -58.4 Q 218.3 -56.5 218.3 -53.9 L 218.3 -53.9 L 218.3 -53.9 Q 218.3 -51.3 217.1 -48.9 L 217.1 -48.9 L 217.1 -48.9 Q 215.8 -46.6 213.6 -44.9 L 213.6 -44.9 L 213.6 -44.9 Q 208.8 -41.3 201.1 -41.3 L 201.1 -41.3 L 201.1 -41.3 Q 196.9 -41.3 193.7 -43.5 L 193.7 -43.5 L 193.7 -43.5 Q 190.5 -45.6 190.5 -48.1 L 190.5 -48.1 L 190.5 -48.1 Q 190.5 -50.6 192.4 -52.1 L 192.4 -52.1 L 192.4 -52.1 Q 194.2 -53.5 196.9 -53.5 L 196.9 -53.5 L 196.9 -53.5 Q 199.6 -53.5 201.2 -52.5 L 201.2 -52.5 L 201.2 -52.5 Q 200.4 -50.4 200.4 -49 L 200.4 -49 L 200.4 -49 Q 200.4 -44.8 204 -44.8 L 204 -44.8 L 204 -44.8 Q 205.5 -44.8 206.5 -45.7 L 206.5 -45.7 L 206.5 -45.7 Q 207.6 -46.7 207.6 -48.3 L 207.6 -48.3 L 207.6 -48.3 Q 207.6 -51.6 202 -55.1 L 202 -55.1 L 202 -55.1 Q 197.6 -58 196.5 -59.2 L 196.5 -59.2 L 196.5 -59.2 Q 194.8 -61.2 194.8 -63.8 L 194.8 -63.8 L 194.8 -63.8 Q 194.8 -66.3 196 -68.8 L 196 -68.8 L 196 -68.8 Q 197.2 -71.2 199.5 -72.9 L 199.5 -72.9 L 199.5 -72.9 Q 204.2 -76.5 212.3 -76.5 L 212.3 -76.5 L 212.3 -76.5 Q 216.4 -76.5 218.9 -74.8 L 218.9 -74.8 L 218.9 -74.8 Q 221.4 -73.2 221.4 -70.4 L 221.4 -70.4 L 221.4 -70.4 Q 221.4 -67.5 219.7 -65.9 L 219.7 -65.9 L 219.7 -65.9 Q 218 -64.3 214.9 -64.3 L 214.9 -64.3 L 214.9 -64.3 Q 212.8 -64.3 211.8 -65 Z M 262.8 -63.2 L 275.8 -64.3 L 275.8 -64.3 Q 271.2 -54.2 271.2 -42.5 L 271.2 -42.5 L 271.2 -42.5 Q 269.4 -41.3 266.9 -41.3 L 266.9 -41.3 L 266.9 -41.3 Q 264.4 -41.3 262.8 -42.5 L 262.8 -42.5 L 262.8 -42.5 Q 261.2 -43.7 260.9 -44.9 L 260.9 -44.9 L 260.9 -44.9 Q 259.3 -43.2 256.7 -42.3 L 256.7 -42.3 L 256.7 -42.3 Q 254.1 -41.3 251.3 -41.3 L 251.3 -41.3 L 251.3 -41.3 Q 248.6 -41.3 246.2 -42.2 L 246.2 -42.2 L 246.2 -42.2 Q 243.8 -43.1 241.9 -45.1 L 241.9 -45.1 L 241.9 -45.1 Q 237.8 -49.4 237.8 -57.7 L 237.8 -57.7 L 237.8 -57.7 Q 237.8 -70.5 244.7 -78.2 L 244.7 -78.2 L 244.7 -78.2 Q 251.7 -86.1 264.2 -86.1 L 264.2 -86.1 L 264.2 -86.1 Q 272.8 -86.1 275.9 -81.6 L 275.9 -81.6 L 275.9 -81.6 Q 276.9 -80.2 276.9 -78.5 L 276.9 -78.5 L 276.9 -78.5 Q 276.9 -76.8 276.1 -75.4 L 276.1 -75.4 L 276.1 -75.4 Q 275.4 -73.9 274.2 -72.8 L 274.2 -72.8 L 274.2 -72.8 Q 271.5 -70.2 268.1 -70.2 L 268.1 -70.2 L 268.1 -70.2 Q 266.8 -70.2 265.5 -70.7 L 265.5 -70.7 L 265.5 -70.7 Q 265.7 -72.6 265.7 -74.8 L 265.7 -74.8 L 265.7 -74.8 Q 265.7 -77.1 265.6 -78.1 L 265.6 -78.1 L 265.6 -78.1 Q 265.4 -79.1 265 -80 L 265 -80 L 265 -80 Q 264.2 -81.7 262.4 -81.7 L 262.4 -81.7 L 262.4 -81.7 Q 260.5 -81.7 258.5 -79.7 L 258.5 -79.7 L 258.5 -79.7 Q 256.5 -77.8 254.9 -74.6 L 254.9 -74.6 L 254.9 -74.6 Q 251.4 -67.4 251.4 -58.8 L 251.4 -58.8 L 251.4 -58.8 Q 251.4 -54.8 252.9 -52 L 252.9 -52 L 252.9 -52 Q 254.6 -48.9 257.5 -48.9 L 257.5 -48.9 L 257.5 -48.9 Q 258.6 -48.9 259.5 -49.4 L 259.5 -49.4 L 259.5 -49.4 Q 260.4 -49.9 260.8 -50.3 L 260.8 -50.3 L 262.8 -63.2 Z M 281.7 -44.5 L 281.7 -44.5 L 281.7 -44.5 Q 280.2 -46.2 279.5 -48.8 L 279.5 -48.8 L 279.5 -48.8 Q 278.8 -51.4 278.8 -55.7 L 278.8 -55.7 L 278.8 -55.7 Q 278.8 -60 280.3 -63.9 L 280.3 -63.9 L 280.3 -63.9 Q 281.8 -67.8 284.5 -70.6 L 284.5 -70.6 L 284.5 -70.6 Q 290 -76.5 299.1 -76.5 L 299.1 -76.5 L 299.1 -76.5 Q 302.3 -76.5 304.7 -75.4 L 304.7 -75.4 L 315.6 -76.5 L 310.9 -51.5 L 310.9 -51.5 Q 310.7 -50.8 310.7 -49.4 L 310.7 -49.4 L 310.7 -49.4 Q 310.7 -48 311.6 -47.1 L 311.6 -47.1 L 311.6 -47.1 Q 312.4 -46.2 313.7 -46 L 313.7 -46 L 313.7 -46 Q 313.1 -43.9 310.8 -42.6 L 310.8 -42.6 L 310.8 -42.6 Q 308.4 -41.3 305.8 -41.3 L 305.8 -41.3 L 305.8 -41.3 Q 303.2 -41.3 301.4 -42.3 L 301.4 -42.3 L 301.4 -42.3 Q 299.6 -43.3 299.1 -45 L 299.1 -45 L 299.1 -45 Q 298.1 -43.4 295.9 -42.3 L 295.9 -42.3 L 295.9 -42.3 Q 293.8 -41.3 290.8 -41.3 L 290.8 -41.3 L 290.8 -41.3 Q 287.9 -41.3 285.6 -42.1 L 285.6 -42.1 L 285.6 -42.1 Q 283.2 -42.8 281.7 -44.5 Z M 295.2 -70.5 L 295.2 -70.5 L 295.2 -70.5 Q 294.5 -69.3 293.8 -67.4 L 293.8 -67.4 L 293.8 -67.4 Q 293.2 -65.4 292.1 -60.2 L 292.1 -60.2 L 292.1 -60.2 Q 291.1 -55 291.1 -51.3 L 291.1 -51.3 L 291.1 -51.3 Q 291.1 -47.6 291.6 -46.5 L 291.6 -46.5 L 291.6 -46.5 Q 292.2 -45.4 293.2 -45.4 L 293.2 -45.4 L 293.2 -45.4 Q 295.3 -45.4 296.8 -47.4 L 296.8 -47.4 L 296.8 -47.4 Q 298.3 -49.3 298.9 -52.8 L 298.9 -52.8 L 302.3 -71.5 L 302.3 -71.5 Q 300.9 -72.7 299.4 -72.7 L 299.4 -72.7 L 299.4 -72.7 Q 297.8 -72.7 296.9 -72.2 L 296.9 -72.2 L 296.9 -72.2 Q 295.9 -71.6 295.2 -70.5 Z M 334.4 -46.1 L 334.4 -46.1 L 334.4 -46.1 Q 332.4 -41.3 326.1 -41.3 L 326.1 -41.3 L 326.1 -41.3 Q 322.9 -41.3 320.8 -43.5 L 320.8 -43.5 L 320.8 -43.5 Q 319.2 -45.4 319.2 -47.5 L 319.2 -47.5 L 319.2 -47.5 Q 319.2 -52.3 321.4 -62.8 L 321.4 -62.8 L 326.1 -87.4 L 339.1 -88.7 L 332.9 -56.3 L 332.9 -56.3 Q 331.8 -51.5 331.8 -49.9 L 331.8 -49.9 L 331.8 -49.9 Q 331.8 -46.2 334.4 -46.1 Z M 355.1 -46.1 L 355.1 -46.1 L 355.1 -46.1 Q 353.2 -41.3 346.8 -41.3 L 346.8 -41.3 L 346.8 -41.3 Q 343.6 -41.3 341.6 -43.5 L 341.6 -43.5 L 341.6 -43.5 Q 339.9 -45.4 339.9 -47.5 L 339.9 -47.5 L 339.9 -47.5 Q 339.9 -52.3 342.1 -62.8 L 342.1 -62.8 L 346.8 -87.4 L 359.8 -88.7 L 353.6 -56.3 L 353.6 -56.3 Q 352.5 -51.5 352.5 -49.9 L 352.5 -49.9 L 352.5 -49.9 Q 352.5 -46.2 355.1 -46.1 Z M 386.5 -53.4 L 386.5 -53.4 L 386.5 -53.4 Q 388.1 -52.3 388.1 -49.9 L 388.1 -49.9 L 388.1 -49.9 Q 388.1 -47.5 386.9 -46 L 386.9 -46 L 386.9 -46 Q 385.7 -44.4 383.7 -43.4 L 383.7 -43.4 L 383.7 -43.4 Q 379.6 -41.3 375.2 -41.3 L 375.2 -41.3 L 375.2 -41.3 Q 370.8 -41.3 368.2 -42.3 L 368.2 -42.3 L 368.2 -42.3 Q 365.6 -43.2 363.8 -45 L 363.8 -45 L 363.8 -45 Q 360.4 -48.4 360.4 -54.6 L 360.4 -54.6 L 360.4 -54.6 Q 360.4 -64.3 365.7 -70.2 L 365.7 -70.2 L 365.7 -70.2 Q 371.3 -76.5 381.1 -76.5 L 381.1 -76.5 L 381.1 -76.5 Q 387.2 -76.5 390.2 -73.9 L 390.2 -73.9 L 390.2 -73.9 Q 392.4 -72 392.4 -68.9 L 392.4 -68.9 L 392.4 -68.9 Q 392.4 -57.6 373 -57.6 L 373 -57.6 L 373 -57.6 Q 372.7 -56 372.7 -54.6 L 372.7 -54.6 L 372.7 -54.6 Q 372.7 -51.6 374 -50.5 L 374 -50.5 L 374 -50.5 Q 375.4 -49.4 377.8 -49.4 L 377.8 -49.4 L 377.8 -49.4 Q 380.2 -49.4 382.8 -50.5 L 382.8 -50.5 L 382.8 -50.5 Q 385.4 -51.6 386.5 -53.4 Z M 373.4 -60.4 L 373.4 -60.4 L 373.4 -60.4 Q 378 -60.4 380.6 -63.2 L 380.6 -63.2 L 380.6 -63.2 Q 383.2 -65.9 383.2 -70.2 L 383.2 -70.2 L 383.2 -70.2 Q 383.2 -71.6 382.7 -72.4 L 382.7 -72.4 L 382.7 -72.4 Q 382.1 -73.2 381.1 -73.2 L 381.1 -73.2 L 381.1 -73.2 Q 380 -73.2 379 -72.8 L 379 -72.8 L 379 -72.8 Q 378.1 -72.4 377.2 -71 L 377.2 -71 L 377.2 -71 Q 374.8 -67.8 373.4 -60.4 Z M 414.7 -60.6 L 414.7 -60.6 L 414.7 -60.6 Q 417 -64.7 417 -68.8 L 417 -68.8 L 417 -68.8 Q 417 -71.6 415 -71.6 L 415 -71.6 L 415 -71.6 Q 413.4 -71.6 411.8 -69 L 411.8 -69 L 411.8 -69 Q 410.2 -66.3 409.7 -62.9 L 409.7 -62.9 L 406.3 -42.6 L 393.1 -41.3 L 399.6 -75.2 L 410.2 -76.5 L 409 -70 L 409 -70 Q 412.2 -76.5 419.2 -76.5 L 419.2 -76.5 L 419.2 -76.5 Q 422.9 -76.5 424.9 -74.6 L 424.9 -74.6 L 424.9 -74.6 Q 426.9 -72.7 426.9 -68.7 L 426.9 -68.7 L 426.9 -68.7 Q 426.9 -64.8 424.4 -62.3 L 424.4 -62.3 L 424.4 -62.3 Q 421.8 -59.8 417.3 -59.8 L 417.3 -59.8 L 417.3 -59.8 Q 415.4 -59.8 414.7 -60.6 Z M 448.3 -49.8 L 448.3 -49.8 L 448.3 -49.8 Q 445 -46.4 438.9 -46.4 L 438.9 -46.4 L 438.9 -46.4 Q 431.3 -46.4 429.7 -51.9 L 429.7 -51.9 L 429.7 -51.9 Q 429.2 -53.6 429.2 -55.4 L 429.2 -55.4 L 429.2 -55.4 Q 429.2 -57.3 429.6 -59.2 L 429.6 -59.2 L 432.6 -75.2 L 445.6 -76.5 L 442 -57.9 L 442 -57.9 Q 441.9 -57 441.7 -56.2 L 441.7 -56.2 L 441.7 -56.2 Q 441.5 -55.3 441.5 -54.3 L 441.5 -54.3 L 441.5 -54.3 Q 441.5 -53.4 441.9 -52.8 L 441.9 -52.8 L 441.9 -52.8 Q 442.2 -52.2 442.6 -51.8 L 442.6 -51.8 L 442.6 -51.8 Q 443.4 -51.3 444.8 -51.3 L 444.8 -51.3 L 444.8 -51.3 Q 446.1 -51.3 447.3 -53 L 447.3 -53 L 447.3 -53 Q 448.5 -54.6 449.1 -57.5 L 449.1 -57.5 L 452.6 -75.2 L 465.2 -76.5 L 460.4 -51.4 L 460.4 -51.4 Q 458 -39.1 453.2 -34.2 L 453.2 -34.2 L 453.2 -34.2 Q 450.7 -31.7 447.5 -30.7 L 447.5 -30.7 L 447.5 -30.7 Q 444.2 -29.7 440.1 -29.7 L 440.1 -29.7 L 440.1 -29.7 Q 433.3 -29.7 429.5 -31.8 L 429.5 -31.8 L 429.5 -31.8 Q 425.7 -33.9 425.7 -37.5 L 425.7 -37.5 L 425.7 -37.5 Q 425.7 -40.1 427.6 -41.6 L 427.6 -41.6 L 427.6 -41.6 Q 429.6 -43.1 432.7 -43.1 L 432.7 -43.1 L 432.7 -43.1 Q 435.4 -43.1 437.4 -41.9 L 437.4 -41.9 L 437.4 -41.9 Q 438.7 -41.2 439.2 -40.3 L 439.2 -40.3 L 439.2 -40.3 Q 437.8 -39.1 437.8 -37 L 437.8 -37 L 437.8 -37 Q 437.8 -34.1 440.3 -34.1 L 440.3 -34.1 L 440.3 -34.1 Q 444.5 -34.1 447 -43.9 L 447 -43.9 L 447 -43.9 Q 447.7 -46.7 448.3 -49.8 Z" fill="url(#editing-gradient-gradient)"></path></g></g><style>text {
  font-size: 64px;
  font-family: Arial Black;
  dominant-baseline: central;
  text-anchor: middle;
}</style></svg>